<mxfile host="app.diagrams.net" modified="2023-06-08T05:02:32.217Z" agent="Mozilla/5.0 (Windows NT 10.0; Win64; x64) AppleWebKit/537.36 (KHTML, like Gecko) Chrome/114.0.0.0 Safari/537.36" version="21.3.7" etag="TNVirNgTswOJSec9vYOJ" type="github">
  <diagram name="第 1 页" id="AdUMbn1SYGiTp_r3RLKA">
    <mxGraphModel>
      <root>
        <mxCell id="0" />
        <mxCell id="1" parent="0" />
      </root>
    </mxGraphModel>
  </diagram>
</mxfile>
